<?xml version="1.0" encoding="utf-8" ?>
<svg xmlns="http://www.w3.org/2000/svg" xmlns:xlink="http://www.w3.org/1999/xlink" width="1261" height="1009">
	<path fill="#FEFEFE" transform="scale(0.985886 0.985886)" d="M0 0L1278.91 0C1280.3 2.44878 1279.99 5.15956 1280 7.90141L1280.01 807.041L1280 969.618C1280 976.707 1280.96 1018.64 1279.61 1022.62C1279.43 1023.14 1279.19 1023.51 1278.91 1024L0 1024L0 0Z"/>
	<path fill="#78862A" transform="scale(0.985886 0.985886)" d="M729.147 434.422C729.283 434.342 729.421 434.268 729.553 434.183C730.194 433.767 729.97 433.926 730.458 433.181C732.679 432.741 735.002 432.137 737.03 433.489C738.295 434.331 739.217 435.796 739.888 437.13C739.551 439.571 739.328 442.091 738.764 444.488C737.221 442.821 734.946 441.673 733.024 440.472L732.144 440.258C730.326 440.902 729.298 441.034 727.383 440.749L724.891 437.473C726.129 436.003 727.464 435.313 729.147 434.422Z"/>
	<path fill="#829B27" transform="scale(0.985886 0.985886)" d="M724.891 437.473C726.129 436.003 727.464 435.313 729.147 434.422C730.13 436.032 730.317 436.723 730.314 438.61C729.247 440.279 729.165 440.188 727.383 440.749L724.891 437.473Z"/>
	<path fill="#829B27" transform="scale(0.985886 0.985886)" d="M797.632 525.756C799.321 526.156 799.6 526.086 800.77 527.458C800.889 529.031 800.765 531.813 802.005 532.873C802.417 533.225 802.688 533.352 803.141 533.606C803.235 535.725 802.947 537.874 801.705 539.663C800.574 541.292 798.797 542.25 796.84 542.451C794.714 542.669 793.311 542.065 791.69 540.754C791.065 539.728 790.562 538.924 790.558 537.69C790.543 532.759 794.463 529.018 797.632 525.756Z"/>
	<path fill="#859528" transform="scale(0.985886 0.985886)" d="M789 515.373C788.848 511.02 788.122 504.615 791.522 501.213C792.319 500.415 792.751 500.444 793.799 500.157C796.641 500.911 798.142 502.577 799.606 505.083C801.947 509.087 802.147 513.427 802.857 517.901C804.302 512.752 805.656 508.001 810.672 505.153C812.519 504.105 813.774 504.034 815.765 504.644C816.725 505.723 817.26 506.29 817.207 507.806C817.076 511.508 813.44 515.07 810.718 517.209Q807.206 520.01 803.338 522.294C808.694 522.943 818.714 522.319 822.957 525.528C823.388 526.822 823.506 526.964 822.82 528.248C822.165 529.473 820.991 530.24 819.66 530.571C815.933 531.497 810.76 530.17 807.165 529.001L801.375 521.976C802.252 525.405 803.252 528.682 803.175 532.247C803.169 532.53 803.173 532.813 803.166 533.096C803.161 533.267 803.149 533.436 803.141 533.606C802.688 533.352 802.417 533.225 802.005 532.873C800.765 531.813 800.889 529.031 800.77 527.458C799.6 526.086 799.321 526.156 797.632 525.756L796.802 525.847C793.323 526.26 792.165 527.632 789.21 528.919C786.493 530.103 779.276 530.748 776.95 528.952C776.069 528.271 776.082 527.769 775.724 526.76C775.931 524.701 776.364 522.926 778.008 521.524C781.053 518.927 792.581 519.554 793.074 518.854L789 515.373Z"/>
	<path fill="#F8C72B" transform="scale(0.985886 0.985886)" d="M482.744 499.374C483.682 499.571 484.743 499.745 485.62 500.132C487.205 500.833 487.602 501.738 488.219 503.257C488.103 507.209 485.368 511.599 483.762 515.196C487.146 516.021 492.001 516.518 494.731 518.658C496.151 519.771 496.284 520.652 496.56 522.358C495.872 524.094 495.768 524.554 494.255 525.747C491.188 526.227 488.682 524.756 485.731 524.215C483.844 523.869 482.8 524.363 481.256 525.394C479.752 528.492 481.406 531.236 481.605 534.455C481.694 535.885 481.327 537.28 480.31 538.332C479.001 539.687 477.486 540.168 475.659 540.119C474.833 539.711 474.2 539.406 473.645 538.642C471.767 536.058 471.98 533.925 472.422 530.889C472.493 529.841 472.309 529.091 472.112 528.06C468.93 524.669 464.125 529.123 459.871 528.711C458.892 528.116 458.395 528.004 457.827 526.964C457.057 525.552 456.659 523.157 457.263 521.642C457.811 520.266 466.355 516.973 468.222 516.126C466.404 512.784 464.048 511.77 461.844 508.978C460.774 507.623 460.459 506.45 460.606 504.767C461.37 503.241 461.911 502.838 463.371 501.954C467.631 501.603 471.066 506.278 474.449 508.631C477.457 505.742 479.461 501.991 482.744 499.374Z"/>
	<path fill="#3A3143" transform="scale(0.985886 0.985886)" d="M718.918 726.07C727.33 725.907 736.013 725.386 744.386 726.211C749.247 726.69 754.547 727.933 757.668 732.021C759.327 734.193 760.457 737.541 760.023 740.281C759.369 744.408 756.485 746.81 753.329 749.118C752.051 749.504 750.76 749.838 749.43 749.979C739.021 751.081 725.576 749.695 717.23 743.046C716.624 741.51 716.069 739.961 715.671 738.357C714.969 735.527 714.522 731.316 716.267 728.816C717.196 727.485 716.41 728.893 717.187 727.46C717.628 726.647 718.132 726.533 718.918 726.07Z"/>
	<path fill="#859528" transform="scale(0.985886 0.985886)" d="M721.576 459.579C724.285 459.365 726.675 459.22 728.591 457.12C730.043 452.537 725.137 447.778 723.697 443.495C722.915 441.168 723.901 439.599 724.891 437.473L727.383 440.749C729.298 441.034 730.326 440.902 732.144 440.258L733.024 440.472C734.946 441.673 737.221 442.821 738.764 444.488C739.436 446.826 739.849 449.758 741.733 451.404C742.996 451.632 743.396 451.802 744.557 451.081C749.021 448.312 751.908 440.547 758.375 441.866C759.524 442.101 759.619 442.403 760.427 443.174C760.901 444.814 761.3 445.801 760.504 447.477C759.343 449.921 756.651 451.744 754.797 453.639C753.9 454.556 753.337 456.226 752.788 457.389C753.021 457.488 753.25 457.596 753.487 457.686C758.166 459.464 765.248 453.866 769.41 457.82C769.58 459.251 769.738 459.579 768.813 460.798C766.202 464.239 760.24 465.333 756.245 465.689C753.739 465.913 750.703 466.554 748.554 465.162C747.151 467.432 747.138 468.695 747.284 471.304C747.296 471.524 747.299 471.744 747.306 471.964C749.808 473.194 752.41 475.175 753.43 477.878C754.017 479.434 753.842 481.037 753.04 482.482C751.037 486.09 746.919 487.232 743.144 488.016C742.555 488.138 742.023 488.174 741.425 488.206C739.543 487.847 738.26 487.58 736.706 486.426C735.498 484 736.214 480.396 735.96 477.594C735.785 475.636 735.627 474.294 734.64 472.576C728.865 469.583 725.081 475.943 719.779 477.182C719.628 477.217 719.474 477.243 719.322 477.274C717.531 476.554 716.507 475.762 715.41 474.212C713.171 471.045 711.315 467.328 712.151 463.327C712.48 461.756 713.25 460.457 714.681 459.663C716.813 458.481 719.364 458.945 721.576 459.579Z"/>
	<path fill="#829B27" transform="scale(0.985886 0.985886)" d="M732 465.051C732.025 464.896 732.021 464.733 732.075 464.586C732.761 462.727 735.145 461.727 736.985 461.26C738.358 460.912 739.081 460.928 740.276 461.65L739.276 463.766C736.741 464.999 734.638 464.607 732 465.051Z"/>
	<path fill="#78862A" transform="scale(0.985886 0.985886)" d="M739.276 463.766C740.721 464.195 740.87 464.108 741.697 465.338C741.162 467.347 741.12 467.496 739.492 468.773C738.251 468.668 738.312 468.892 737.375 467.939C735.863 467.482 734.253 467.308 732.712 466.867L732 465.051C734.638 464.607 736.741 464.999 739.276 463.766Z"/>
	<path fill="#DB4048" transform="scale(0.985886 0.985886)" d="M551.986 427.117C552.747 427.129 553.449 427.161 554.173 427.432C556.438 428.278 559.232 430.348 560.12 432.664C560.672 434.105 560.697 435.882 559.903 437.245C558.802 439.135 558.118 439.233 556.127 439.74C554.134 442.363 553.218 446.145 552.43 449.304C553.259 451.776 563.748 452.496 566.461 454.433C567.647 455.28 568.617 456.389 568.641 457.924C568.691 461.137 564.43 465.802 562.136 467.83C555.86 473.378 555.809 463.432 547.998 462.881C547.757 462.864 547.515 462.853 547.274 462.84C544.518 467.885 544.513 477.223 539.85 480.251C537.663 481.671 534.809 481.085 532.419 480.658C528.909 478.836 527.65 476.062 525.658 472.789C526.788 470.223 528.7 468.317 530.438 466.167C532.681 463.392 535.293 460.949 534.891 457.197C531.889 454.626 527.352 456.441 523.662 456.327C521.188 456.25 518.85 455.785 517.172 453.815C514.235 450.366 519.504 447.112 520.519 444.045C521.157 442.118 520.66 439.449 520.809 437.406C520.93 435.749 521.373 434.19 522.75 433.144C524.229 432.02 527.047 431.582 528.824 431.975C532.449 432.776 534.116 438.09 536.049 440.781C537.064 442.193 537.58 442.557 539.277 442.778C544.227 440.266 542.626 433.841 545.879 429.794C547.69 427.541 549.295 427.527 551.986 427.117Z"/>
	<path fill="#F8C72B" transform="scale(0.985886 0.985886)" d="M585.055 354.307C587.258 347.585 590.305 341.813 591.93 334.857C594.9 333.129 601.22 333.126 604.69 332.69C633.252 329.106 662.335 329.953 690.255 337.216C694.064 343.539 695.701 349.992 698.129 356.897C697.907 357.966 697.641 359.07 697.005 359.978C695.883 361.579 678.1 379.004 676.349 380.248C675.785 380.648 675.179 380.908 674.529 381.124C663.714 379.519 652.988 377.903 642.044 377.549C637.256 377.394 608.433 378.911 606.778 377.912C600.048 373.853 592.139 359.938 585.596 354.727C585.417 354.585 585.235 354.447 585.055 354.307Z"/>
	<path fill="#F6E19B" transform="scale(0.985886 0.985886)" d="M685.847 356.761L687.154 357.635C688.032 359.698 687.432 361.178 687.053 363.319C685.988 362.822 685.368 362.341 684.547 361.501C684.404 359.452 685.004 358.605 685.847 356.761Z"/>
	<path fill="#F3862E" transform="scale(0.985886 0.985886)" d="M615.222 273.554C647.021 271.119 681.703 274.77 712.451 282.932C704.017 290.983 692.589 300.4 688.701 311.684C687.516 315.123 687.465 319.602 687.031 323.229C684.682 323.576 682.427 322.932 680.128 322.469C652.059 317.807 623.687 318.29 595.61 322.34C594.782 306.985 593.394 290.007 584.985 276.6C594.825 274.753 605.232 274.346 615.222 273.554Z"/>
	<path fill="#DB4048" transform="scale(0.985886 0.985886)" d="M627.716 214.904C631.341 213.893 637.472 214.513 641.382 214.395C645.012 214.558 648.833 214.969 652.447 214.65C685.931 215.906 732.43 223.557 763.246 237.484C754.687 244.337 746.881 251.58 738.882 259.096C733.467 264.185 727.897 270.352 721.545 274.234C714.486 271.29 706.806 269.704 699.353 268.077C668.1 261.253 636.956 260.171 605.163 263.033C596.979 263.77 588.119 264.479 580.19 266.708C570.422 252.82 556.785 238.697 542.467 229.511C556.546 223.984 595.358 216.757 610.621 216.021C615.732 214.843 622.434 214.908 627.716 214.904Z"/>
	<path fill="#DB4048" transform="scale(0.985886 0.985886)" d="M641.382 214.395C645.012 214.558 648.833 214.969 652.447 214.65C652.24 215.083 652.21 215.228 651.807 215.599C649.827 217.423 644.587 219.036 641.97 218.808C640.633 218.692 640.498 218.498 639.678 217.543C640.126 216.281 640.608 215.462 641.382 214.395Z"/>
	<path fill="#3A3143" transform="scale(0.985886 0.985886)" d="M631.158 526.307C648.797 526.058 668.176 537.588 680.506 549.642C692.353 561.225 700.474 574.421 704.827 590.419C705.766 593.872 706.846 597.483 706.957 601.077C706.999 602.471 706.803 604.777 705.656 605.739C701.897 608.895 675.824 616.628 669.516 618.773C648.907 625.784 628.327 633.532 607.985 641.295C600.398 644.191 592.926 647.465 585.28 650.194C583.131 650.961 581.156 651.729 578.849 651.723C575.98 648.116 576.517 633.547 577.088 628.76C577.61 624.387 578.735 620.044 581.434 616.45C582.775 614.768 583.716 611.738 584.695 609.714C591.746 596.53 598.54 582.941 605.177 569.536C608.388 563.051 611.247 554.826 615.628 549.169L616.353 550.203C621.997 540.165 619.103 533.466 631.158 526.307Z"/>
	<path fill="#433A4E" transform="scale(0.985886 0.985886)" d="M581.434 616.45C582.775 614.768 583.716 611.738 584.695 609.714C585.146 612.216 585.146 616.109 587.174 617.788C586.45 618.756 585.557 620.289 584.619 621C583.717 619.195 582.903 617.846 581.434 616.45Z"/>
	<path fill="#F5BF71" transform="scale(0.985886 0.985886)" d="M696.975 596.469C698.275 596.635 698.409 596.817 699.423 597.678C700.058 599.307 700.182 599.971 699.875 601.692C699.555 602.027 699.368 602.595 698.917 602.696C698.456 602.798 697.978 602.09 697.257 602.28C691.149 603.889 684.99 606.719 678.998 608.814C672.209 611.187 665.259 613.068 658.466 615.431C634.142 623.893 610.035 633.313 585.9 642.324L584.951 642.081C584.605 639.946 583.924 635.985 584.835 633.986C585.731 632.019 589.011 629.995 591.026 629.163C597.843 626.35 605.69 624.581 612.757 622.226C631.633 615.934 650.663 609.498 669.768 603.948C678.816 601.319 688.134 599.795 696.975 596.469Z"/>
	<path fill="#F5BF71" transform="scale(0.985886 0.985886)" d="M632.538 531.278C634.332 531.54 636.072 532.103 637.808 532.615C665.143 540.681 682.699 557.568 696.029 582.185C697.111 584.183 698.668 586.643 697.981 588.971C696.306 590.315 693.654 590.265 691.573 590.5L684.124 592.313C677.068 573.522 661.138 556.093 643.062 547.315C638.777 545.234 631.07 543.466 627.752 540.25C627.137 539.653 626.718 538.913 626.81 538.039C627.123 535.068 630.398 533.027 632.538 531.278Z"/>
	<path fill="#F5BF71" transform="scale(0.985886 0.985886)" d="M622.575 546.175C640.029 549.025 656.444 561.19 666.68 575.319C670.536 580.642 674.903 586.765 677.261 592.897L676.453 593.44L676.573 593.649L677.493 593.575L676.682 593.829L676.972 594.23L677.698 594.287L677.638 594.993C671.009 597.001 664.264 598.679 657.674 600.793C651.946 602.63 602.459 619.548 601.777 620.402L601.732 621.472C600.995 621.67 600.276 621.841 599.525 621.976C594.787 622.827 587.935 626.989 583.554 626.559C582.938 624.435 583.627 622.926 584.619 621C585.557 620.289 586.45 618.756 587.174 617.788C595.019 605.59 601.916 588.684 608.448 575.254C613.148 565.592 618.783 556.24 622.575 546.175Z"/>
	<path fill="#3A3143" transform="scale(0.985886 0.985886)" d="M622.709 599.195C624.504 599.937 625.101 600.039 626.287 601.636C626.303 603.232 625.844 603.95 625.012 605.229C623.552 604.552 622.661 603.991 621.567 602.802C621.505 600.984 621.803 600.708 622.709 599.195Z"/>
	<path fill="#433A4E" transform="scale(0.985886 0.985886)" d="M634.934 560.659C636.324 560.864 637.45 561.105 638.622 561.928C639.871 562.803 640.792 564.265 640.925 565.797C641.098 567.81 640.334 569.219 639.158 570.762C636.252 570.474 633.297 569.742 631.506 567.192C630.712 566.062 630.451 564.894 630.912 563.563C631.527 561.79 633.403 561.314 634.934 560.659Z"/>
	<path fill="#433A4E" transform="scale(0.985886 0.985886)" d="M656.042 582.581C656.989 582.582 657.816 582.699 658.713 582.997C660.044 583.439 661.078 584.166 661.663 585.479C662.205 586.693 662.097 587.932 661.606 589.141C660.878 590.931 659.468 591.478 657.791 592.204C656.606 592.261 655.201 592.415 654.048 592.099C652.919 591.789 651.636 590.608 651.11 589.554C650.437 588.206 650.715 586.833 651.321 585.521C652.194 583.63 654.222 583.166 656.042 582.581Z"/>
	<path fill="#3A3143" transform="scale(0.985886 0.985886)" d="M601.844 596.981C601.966 597.043 602.082 597.118 602.211 597.166C603.175 597.52 604.136 597.592 604.999 598.234C606.752 599.538 608.105 602.554 608.346 604.684C608.547 606.46 607.993 608.117 606.899 609.509C605.318 611.52 603.888 611.659 601.417 611.919C599.214 611.117 597.585 610.254 595.843 608.671C594.629 605.277 598.656 604.762 599.552 599.994C599.782 598.769 600.995 597.889 601.844 596.981Z"/>
	<path fill="#433A4E" transform="scale(0.985886 0.985886)" d="M630.47 577.11C633.889 577.008 637.488 576.799 640.349 579.021C642.905 581.006 644.885 583.869 645.106 587.172C645.246 589.257 644.654 591.275 643.254 592.848C641.052 595.321 638.495 595.706 635.342 595.925C631.766 595.987 628.228 596.134 625.029 594.252C622.582 592.813 620.379 590.596 619.712 587.756C619.265 585.851 619.645 583.951 620.741 582.333C623.01 578.983 626.775 577.982 630.47 577.11Z"/>
	<path fill="#F5BF71" transform="scale(0.985886 0.985886)" d="M624.895 582.047C626.025 582.041 627.227 582.001 628.343 582.184C629.69 582.404 631.237 582.739 632.052 583.841C630.09 584.304 628.496 584.181 626.501 583.983C625.821 585.794 625.375 586.692 623.836 587.89L622.761 587.686C622.573 587.05 622.409 586.617 622.383 585.927C622.318 584.168 623.775 583.132 624.895 582.047Z"/>
	<path fill="#3A3143" transform="scale(0.985886 0.985886)" d="M531.794 640.222C532.634 640.085 533.572 639.881 534.422 639.915C535.366 639.953 536.076 640.268 536.615 641.043C538.553 643.826 536.77 651.376 536.037 654.473C534.48 661.046 530.641 666.647 524.828 670.134C509.189 679.513 492.742 672.709 476.699 668.715C469.45 677.558 456.412 703.342 453.411 713.918C459.144 713.814 465.781 713.124 471.346 714.554C473.56 715.123 475.731 716.188 476.806 718.311C478.695 722.041 476.231 727.648 474.904 731.295C474.616 731.558 474.42 732.002 474.038 732.082C471.747 732.56 465.662 730.664 463.01 730.353C457.355 729.69 451.621 729.722 445.934 729.676C436.188 752.952 426.288 783.495 403.451 797.17C394.257 802.675 382.859 805.08 372.337 802.338C367.569 801.095 363.14 798.397 360.679 794.002C358.307 789.763 358.213 784.602 359.709 780.051C361.033 776.028 363.773 772.693 367.665 770.941C369.677 770.036 371.633 769.53 373.694 770.328C373.323 772.531 370.736 774.595 369.573 776.608C368.629 778.243 367.651 780.51 368.248 782.421C368.537 783.346 368.875 784.176 369.756 784.648C372.564 786.151 377.824 785.069 380.564 784.015C393.888 778.892 411.787 746.731 417.671 733.621L417.167 732.735C411.247 730.859 405.153 741.052 399.379 741.258L398.891 740.161C399.731 736.175 402.275 732.178 404.48 728.774C407.459 725.914 411.552 721.441 415.295 719.785C417.973 718.599 422.018 718.982 424.373 717.357C427.171 715.425 432.763 701.292 435.019 697.352C442.254 684.718 450.66 674.678 459.944 663.583C446.605 658.916 431.751 656.62 417.678 658.758C407.303 660.335 398.765 665.503 392.556 673.984C387.182 681.325 383.805 691.411 385.375 700.545C386.217 705.44 388.679 709.776 392.883 712.544C399.778 717.083 406.514 714.915 413.862 713.514C412.868 715.653 411.827 717.594 410.161 719.293C403.598 725.988 392.86 731.758 383.318 731.708C377.107 731.676 371.279 729.665 366.884 725.176C361.807 719.991 359.798 713.144 359.863 706.01C360.009 689.967 366.096 677.061 377.525 665.932C404.104 640.053 437.084 641.227 470.982 645.715C480.685 646.999 490.512 648.953 500.321 649.043C510.397 649.136 524.167 647.672 531.794 640.222Z"/>
	<path fill="#3A3143" transform="scale(0.985886 0.985886)" d="M910.122 746.892C916.208 751.066 919.373 760.702 921.294 767.409C923.88 776.439 922.794 785.804 918.151 794.002C914.53 800.396 908.74 805.812 902.8 810.032C854.945 844.035 752.829 823.983 697.859 817.124C664.946 813.017 631.524 809.114 598.332 808.372C585.024 808.074 572.314 809.206 559.064 809.961C549.661 810.496 540.22 810.627 530.839 811.469Q518.195 812.655 505.617 814.407Q493.04 816.158 480.553 818.472Q468.066 820.785 455.695 823.656Q443.325 826.527 431.095 829.949Q425.048 831.501 418.961 832.887C490.705 793.506 568.139 782.77 648.819 789.841C668.88 791.6 689.08 794.921 709.019 797.805C749.283 803.628 789.717 810.551 830.575 808.557C854.308 807.399 885.456 802.551 902.008 784.036C912.184 772.652 911.029 761.152 910.122 746.892Z"/>
	<path fill="#F8C72B" transform="scale(0.985886 0.985886)" d="M562.274 377.055C566.605 380.709 570.62 384.86 574.696 388.797C567.389 392.987 558.926 395.687 551.156 398.902C539.091 403.894 526.475 410.374 515.756 417.849C512.301 420.258 502.752 429.226 499.079 428.731C498.244 427.841 497.479 426.89 496.338 426.394C495.478 426.021 494.897 426.652 494.123 427.039C494.169 428.251 497.448 429.023 498.309 430.399C496.043 434.51 484.373 443.193 479.965 447.809C474.201 453.845 468.927 460.59 464.139 467.422C461.475 471.65 458.183 475.405 455.474 479.58C450.397 487.337 445.233 495.033 440.946 503.265C435.464 513.789 431.647 524.556 428.25 535.908C419.845 563.992 418.156 586.098 417.865 615.148C402.138 615.656 386.137 615.306 370.406 614.812C369.432 591.521 373.419 546.049 382.859 525.052L385.24 525.571L385.405 524.813C384.178 524.61 383.755 524.654 382.75 523.883Q386.049 512.941 390.265 502.32Q394.481 491.698 399.585 481.473C419.156 442.934 453.222 400.232 490.068 377.211C495.71 378.94 500.974 381.802 506.601 383.646C525.292 389.77 545.186 385.622 562.274 377.055Z"/>
	<path fill="#F6E19B" transform="scale(0.985886 0.985886)" d="M522.197 401.529C523.518 401.879 524.312 402.212 525.46 403.01C525.025 404.677 523.854 404.915 522.421 405.792L521.243 406.047L520.423 405.45C520.548 403.657 521.094 402.917 522.197 401.529Z"/>
	<path fill="#F6E19B" transform="scale(0.985886 0.985886)" d="M403.206 544.292C404.219 544.411 405.264 544.505 406.26 544.723C407.859 545.072 408.31 545.332 409.194 546.694L408.565 548.923C407.79 549.347 407.068 549.658 406.249 549.98C404.328 548.59 404.023 546.48 403.206 544.292Z"/>
	<path fill="#F3862E" transform="scale(0.985886 0.985886)" d="M449.783 336.116C455.373 340.738 460.246 348.317 465.073 353.868C469.678 359.164 475.015 363.909 480.123 368.713C464.165 380.396 449.272 392.958 435.849 407.555Q432.587 411.039 429.444 414.629Q426.3 418.22 423.278 421.914Q420.256 425.608 417.36 429.4Q414.463 433.193 411.695 437.081Q408.927 440.968 406.29 444.946Q403.653 448.924 401.151 452.988Q398.648 457.052 396.283 461.197Q393.918 465.342 391.693 469.564Q389.467 473.786 387.384 478.08Q385.301 482.374 383.363 486.736Q381.425 491.097 379.633 495.521Q377.842 499.944 376.199 504.426Q374.557 508.907 373.065 513.44Q371.573 517.974 370.233 522.555Q368.894 527.135 367.708 531.759Q366.522 536.382 365.492 541.042C364.045 547.504 362.361 554.093 361.445 560.648C358.986 578.244 358.492 597.137 359.241 614.867C353.784 615.079 348.275 614.984 342.812 615.023C332.761 615.2 322.694 615.125 312.641 615.162C313.74 603.937 312.769 592.27 313.363 580.946C314.069 567.485 315.248 553.051 318.218 539.909C319.863 532.635 322.296 525.452 324.101 518.187C327.388 504.95 332.199 492.445 337.389 479.86C356.61 433.249 384.655 391.478 422.255 357.718C430.741 350.099 440.003 342.009 449.783 336.116Z"/>
	<path fill="#F6E19B" transform="scale(0.985886 0.985886)" d="M342.34 521.61C344.282 522.751 347.137 524.182 347.752 526.4C346.21 527.111 345.277 527.629 343.528 527.258C342.234 525.712 342.438 523.535 342.34 521.61Z"/>
	<path fill="#FEFEFE" transform="scale(0.985886 0.985886)" d="M415.047 406.317L418.488 406.331C419.309 406.831 419.915 407.35 420.379 408.198C421.591 410.419 421.345 413.98 420.68 416.317C419.558 416.274 418.973 416.118 417.986 415.583C415.994 412.718 415.385 409.741 415.047 406.317Z"/>
	<path fill="#F8C72B" transform="scale(0.985886 0.985886)" d="M700.9 390.419C705.304 385.232 715.869 373.445 721.728 370.665C728.091 367.648 740.3 376.566 746.87 378.595C747.079 378.66 747.291 378.719 747.502 378.78L751.236 378.873C761.221 377.755 766.647 374.278 775.088 369.25C781.301 373.593 787.851 377.381 794.116 381.632Q801.61 386.758 808.619 392.53Q815.628 398.303 822.096 404.676Q824.217 406.695 826.294 408.758Q828.372 410.821 830.406 412.928Q832.439 415.035 834.427 417.185Q836.415 419.334 838.358 421.525Q840.3 423.717 842.195 425.949Q844.091 428.181 845.938 430.452Q847.786 432.724 849.585 435.034Q851.384 437.345 853.134 439.693Q854.883 442.041 856.583 444.425Q858.282 446.81 859.931 449.23Q861.579 451.65 863.176 454.104Q864.773 456.559 866.317 459.047Q867.862 461.535 869.353 464.055Q870.845 466.575 872.282 469.126Q873.72 471.677 875.103 474.258Q876.486 476.839 877.814 479.449Q879.142 482.059 880.415 484.696Q881.688 487.333 882.904 489.997Q884.12 492.661 885.28 495.35Q886.439 498.039 887.541 500.752Q888.644 503.465 889.688 506.201Q890.733 508.936 891.719 511.694Q892.705 514.451 893.633 517.228Q894.56 520.006 895.429 522.803Q896.297 525.599 897.107 528.414Q897.916 531.228 898.665 534.059Q899.414 536.89 900.103 539.736Q900.792 542.582 901.42 545.443Q902.049 548.303 902.616 551.176Q903.184 554.049 903.691 556.933Q904.197 559.817 904.643 562.711Q905.088 565.606 905.472 568.509C907.489 584.031 907.712 599.422 907.982 615.046Q881.648 615.541 855.317 614.906C859.83 588.799 857.734 559.027 850.263 533.621C849.308 530.371 836.861 498.334 835.778 496.962C835.478 496.581 834.3 496.036 833.882 495.812L833.247 495.48L833.184 493.758C834.688 492.665 837.365 493.06 839.259 492.933L839.733 491.957C838.418 489.446 832.357 492.156 829.981 488.941C824.385 481.367 820.395 472.834 814.427 465.374C806.892 455.958 798.266 447.674 789.248 439.703C761.665 415.321 735.877 401.744 700.9 390.419Z"/>
	<path fill="#3A3143" transform="scale(0.985886 0.985886)" d="M588.84 700.959C596.106 700.435 615.512 697.168 621 702.198C622.68 703.739 623.032 706.494 622.971 708.637C622.572 722.619 594.565 762.133 598.831 772.14C600.338 772.596 601.015 772.592 602.458 771.868C609.722 768.22 623.74 748.991 628.067 741.699C631.375 736.126 633.857 730.167 636.805 724.408C647.716 703.095 657.582 681.253 668.257 659.817C669.991 656.334 673.341 647.116 676.176 644.873C680.568 641.398 686.836 641.914 691.916 643.32C694.136 643.934 697.57 644.708 698.848 646.786C700.064 648.765 699.642 651.502 698.944 653.577C697.378 658.229 694.59 662.9 692.382 667.316C683.307 685.463 671.444 702.909 664.047 721.748C673.9 709.906 688.961 693.926 705.033 692.34C707.097 692.137 709.157 692.19 711.227 692.28C714.802 694.727 717.289 697.061 718.191 701.538C719.46 707.835 716.135 714.688 712.572 719.7C703.77 732.082 688.219 742.188 673.163 744.534Q671.8 744.747 670.424 744.853C672.095 754.893 674.127 764.512 677.096 774.25C694.401 769.125 698.963 743.439 711.38 746.796C711.937 748.222 711.334 749.387 710.723 750.768C706.642 759.98 689.814 779.544 680.423 782.659C675.997 784.127 669.996 784.77 665.694 782.742C660.864 780.464 658.791 775.147 657.284 770.372C654.625 761.952 653.827 753.295 653.655 744.506L653.095 745.292C644.616 757.343 638.909 771.455 630.102 783.382L629.175 783.345L628.952 784.357C624.002 783.28 624.24 778.584 620.96 776.094C619.927 771.024 621.097 767.387 622.492 762.545L615.418 770.649C608.167 777.497 602.389 782.418 591.82 782.131C587.737 782.02 583.239 781.49 580.199 778.453C577.247 775.503 576.926 771.239 577.091 767.296C577.573 755.709 581.402 743.452 586.475 733.088C589.657 726.586 596.824 717.381 597.288 710.347C594.28 708.029 588.523 708.957 584.817 709.063C583.016 714.403 579.779 719.387 577.037 724.293C570.269 736.403 563.371 751.261 550.304 757.66C547.444 759.061 544.296 759.794 541.216 760.535C530.377 772.154 518.518 781.013 502.099 781.581C494.56 781.842 486.491 780.387 480.761 775.117C475.811 770.564 474.09 764.182 474.018 757.654C473.827 740.473 483.489 721.847 495.382 709.867C503.884 701.302 515.441 695.143 527.724 695.267C534.753 695.339 542.486 697.51 547.502 702.647C552.993 708.272 554.456 715.587 554.251 723.196C553.956 734.153 551.543 743.451 545.961 752.916C548.584 751.407 551.326 749.929 553.474 747.763C561.109 740.066 572.389 718.854 577.207 708.35C573.694 706.39 571.619 703.723 570.463 699.816C569.337 696.011 570.435 691.986 572.356 688.639C574.803 684.378 578.92 680.814 583.733 679.613C586.04 679.038 588.894 678.911 590.995 680.207C592.466 681.116 593.295 682.554 593.637 684.221C594.782 689.791 590.838 695.963 588.84 700.959Z"/>
	<path fill="#FEFEFE" transform="scale(0.985886 0.985886)" d="M689.206 708.253L689.778 708.995C689.755 711.24 688.958 712.941 687.78 714.817C682.746 722.833 670.87 734.235 661.427 736.357L660.955 735.512C670.713 726.472 678.183 716.03 689.206 708.253Z"/>
	<path fill="#FEFEFE" transform="scale(0.985886 0.985886)" d="M528.51 703.948C528.775 704.038 529.045 704.116 529.306 704.22C531.116 704.942 532.763 707.413 533.361 709.201C536.404 718.299 530.567 730.742 526.86 738.945L522.27 734.601C518.502 731.298 515.208 727.251 514.658 722.093C514.242 718.194 515.946 713.26 518.437 710.225C521.084 707 524.289 704.419 528.51 703.948Z"/>
	<path fill="#FEFEFE" transform="scale(0.985886 0.985886)" d="M507.237 731.26C508.407 732.439 509.15 734.37 510.017 735.805C513.065 740.852 516.383 743.67 521.348 746.74C520.284 752.254 510.79 763.206 506.976 767.238C505.544 768.524 503.916 769.85 502.213 770.747C500.832 771.475 499.705 771.503 498.238 770.999C497.653 770.44 497.199 769.944 496.948 769.152C494.002 759.878 502.823 739.372 507.237 731.26Z"/>
	<path fill="#F3862E" transform="scale(0.985886 0.985886)" d="M814.557 325.322C822.313 325.658 867.779 367.565 875.393 375.476C884.794 385.244 892.612 395.872 900.637 406.772C905.221 412.999 910.075 419.184 914.252 425.692Q915.936 428.319 917.571 430.978Q919.206 433.636 920.792 436.324Q922.378 439.012 923.913 441.729Q925.449 444.446 926.934 447.191Q928.419 449.936 929.852 452.708Q931.286 455.48 932.668 458.278Q934.05 461.076 935.38 463.899Q936.711 466.723 937.988 469.57Q939.266 472.418 940.49 475.288Q941.715 478.159 942.886 481.052Q944.057 483.945 945.174 486.859Q946.291 489.773 947.354 492.707Q948.418 495.642 949.426 498.595Q950.435 501.549 951.388 504.52Q952.342 507.492 953.24 510.481Q954.139 513.47 954.982 516.475Q955.824 519.48 956.611 522.5Q957.398 525.52 958.129 528.555Q958.86 531.589 959.535 534.636Q960.209 537.683 960.827 540.742Q961.445 543.802 962.006 546.872Q962.568 549.942 963.072 553.022Q963.576 556.102 964.023 559.191Q964.47 562.28 964.86 565.376Q965.249 568.473 965.581 571.576Q965.914 574.68 966.188 577.789Q966.463 580.898 966.68 584.011Q966.897 587.125 967.056 590.242Q967.215 593.359 967.317 596.478Q967.418 599.597 967.462 602.718Q967.505 605.839 967.491 608.96Q967.477 612.081 967.405 615.201L939.531 615.189L919.234 615.217C919.357 602.335 918.896 589.085 917.809 576.253C912.518 513.783 881.297 446.203 836.665 402.099Q822.829 388.383 807.508 376.351C800.474 370.938 793.029 366.151 786.23 360.423C790.62 353.259 813.569 327.829 814.557 325.322Z"/>
	<path fill="#3A3143" transform="scale(0.985886 0.985886)" d="M879.29 665.106L879.047 663.928C876.567 661.145 874.198 659.023 870.741 657.496C860.704 653.061 849.52 653.954 839.479 657.857C823.481 664.077 813.287 678.51 806.64 693.789C803.471 701.071 799.065 710.339 802.448 718.151C804.154 722.091 808.418 721.586 811.83 722.967C811.944 723.55 811.997 723.616 811.912 724.291C811.741 725.645 810.614 727.142 809.601 727.99C805.383 731.522 798.498 733.051 793.109 732.52C787.804 731.997 784.242 729.842 780.898 725.751C776.193 719.995 774.279 713.558 775.031 706.162C776.823 688.523 790.247 670.932 803.534 660.04C821.026 645.7 842.348 639.558 864.788 641.881C878.059 643.255 889.261 648.93 897.657 659.377C911.659 676.801 913.53 700.205 911.075 721.654C910.136 727.706 909.071 733.671 907.324 739.556C901.569 758.945 889.127 781.522 870.724 791.308C859.192 797.44 846.11 798.094 833.747 794.23C823.942 791.166 819.066 785.912 814.395 777.005C808.473 782.255 802.793 787.434 795.298 790.333C787.387 793.393 775.912 794.116 768.086 790.435Q767.672 790.245 767.268 790.034Q766.864 789.823 766.472 789.592Q766.079 789.36 765.699 789.109Q765.319 788.857 764.952 788.587Q764.586 788.316 764.233 788.027Q763.881 787.738 763.544 787.431Q763.207 787.124 762.887 786.801Q762.566 786.477 762.262 786.137Q761.959 785.797 761.673 785.442Q761.387 785.087 761.12 784.718Q760.853 784.349 760.605 783.966Q760.357 783.583 760.129 783.189Q759.902 782.794 759.694 782.388Q759.487 781.982 759.301 781.566Q759.115 781.15 758.951 780.725Q758.786 780.3 758.644 779.867C756.5 773.498 757.877 766.534 760.915 760.704C764.244 754.317 769.778 749.54 776.702 747.471C785.825 744.744 793.712 747.143 801.784 751.541C808.596 741.65 813.931 731.388 819.012 720.529C827.448 702.499 833.955 681.101 850.679 668.724C856.811 664.186 865.045 661.158 872.647 662.991C874.669 663.479 876.593 664.808 878.61 665.044C878.836 665.07 879.063 665.086 879.29 665.106Z"/>
	<path fill="#FEFEFE" transform="scale(0.985886 0.985886)" d="M779.887 758.505C783.77 758.788 788.321 758.816 791.628 761.083C792.212 762.054 792.612 762.321 792.526 763.501C792.285 766.789 787.954 769.845 785.693 771.932C783.586 773.585 781.67 775.318 779.063 776.097C777.285 775.835 777.387 775.88 776.273 774.466C775.009 768.953 777.26 763.248 779.887 758.505Z"/>
	<path fill="#FEFEFE" transform="scale(0.985886 0.985886)" d="M879.29 665.106C882.481 666.216 884.166 669.414 885.607 672.376C893.427 688.463 891.305 709.662 885.505 725.995C880.05 741.354 870.375 761.217 854.872 768.501C848.264 771.606 842.406 771.297 835.445 769.697C831.946 768.318 828.395 767.007 824.962 765.474C827.541 757.049 833.769 748.877 837.526 740.79C845.063 724.565 859.915 678.588 874.839 670.988C876.514 670.135 878.375 669.628 880.181 669.132C880.744 667.597 879.898 666.584 879.29 665.106Z"/>
	<path fill="#DB4048" transform="scale(0.985886 0.985886)" d="M424.35 282.466C428.019 285.03 431.382 301.887 433.536 306.877C436.31 313.304 440.855 319.345 444.27 325.498C427.941 336.478 412.399 350.58 398.678 364.646C354.429 410.003 321.089 470.814 308.329 533.023C302.735 560.297 300.938 587.344 301.328 615.132L277.031 615.127L254.359 614.995C253.967 599.706 253.624 584.238 254.793 568.971C256.775 543.095 262.804 516.946 269.569 491.94C288.694 421.241 333.366 355.508 389.085 308.566C400.141 299.252 411.81 289.704 424.35 282.466Z"/>
	<path fill="#FEFEFE" transform="scale(0.985886 0.985886)" d="M297.695 522.929C299.486 523.077 300.325 523.307 301.604 524.567C301.692 526.641 301.202 527.189 300.23 528.977C298.704 528.467 298.138 528.132 297.068 526.93C296.792 525.039 297.013 524.647 297.695 522.929Z"/>
	<path fill="#FEFEFE" transform="scale(0.985886 0.985886)" d="M286.868 492.578Q289.093 492.871 291.304 493.25C292.591 494.774 292.461 495.817 292.72 497.765C290.753 498.301 289.451 498.854 287.47 498.266C286.38 496.602 286.781 494.483 286.868 492.578Z"/>
	<path fill="#DB4048" transform="scale(0.985886 0.985886)" d="M852.479 277.236C861.486 282.294 869.908 289.742 877.991 296.172C936.03 342.34 986.306 414.135 1006.88 485.678Q1010.86 499.043 1014.05 512.616Q1017.25 526.189 1019.65 539.925Q1022.05 553.66 1023.65 567.512Q1025.25 581.364 1026.05 595.286C1026.37 600.747 1027.91 610.046 1025.33 614.735C1012.9 615.772 999.658 614.895 987.132 615.015L978.212 615.027C978.033 602.25 978.006 589.384 976.93 576.647C974.37 546.341 966.526 512.332 956.079 483.751C952.906 475.071 949.038 467.119 945.133 458.787C922.958 411.485 893.141 374.587 854.005 340.263C844.335 331.782 833.894 321.502 822.17 316.06C825.497 310.145 830.356 304.839 834.627 299.585Q843.719 288.543 852.479 277.236Z"/>
	<path fill="#3A3143" transform="scale(0.985886 0.985886)" d="M559.228 368.639C543.053 375.824 523.996 378.813 507.098 372.407C476.353 360.751 452.794 322.223 440.1 293.391C432.103 275.229 425.01 251.239 432.489 231.998C435.648 223.869 441.634 217.468 449.654 213.98C465.037 207.289 485.979 211.888 500.976 218.007C533.065 231.1 565.665 256.95 579.219 289.507C586.29 306.491 586.998 323.478 580.767 340.809C578.888 346.034 576.287 350.984 576.61 356.66C576.623 356.893 576.619 357.127 576.641 357.359C576.806 359.089 577.846 360.241 578.96 361.466C592.036 375.842 606.715 389.223 620.427 403.037C626.032 408.684 631.585 416.33 637.832 421.047C638.036 421.201 638.246 421.347 638.453 421.498C643.815 417.645 648.29 412.42 652.965 407.78L678.728 382.187C683.642 379.566 695.593 366.569 699.531 361.837C701.117 360.314 702.671 358.756 704.285 357.264C706.023 355.655 706.505 352.948 706.575 350.663C707.165 331.328 684.333 326.13 708.491 301.854C723.167 287.107 739.282 273.642 754.542 259.494Q770.009 245.054 785.652 230.804C789.077 227.689 792.309 224.094 795.87 221.195C797.305 220.027 798.752 219.457 800.544 219.077L801.635 219.483C801.705 221.214 800.599 222.615 799.612 223.95C790.469 236.326 778.789 247.769 768.356 259.123C759.38 268.892 750.939 279.16 742.021 288.996C737.756 293.699 729.541 301.246 726.701 306.134C725.345 308.467 725.795 309.974 727.345 311.943C729.31 312.458 730.452 312.333 732.296 311.331C738.824 307.779 745.947 298.368 751.466 292.909C762.792 281.708 774.625 270.98 786.042 259.858C795.021 251.112 803.695 241.533 813.291 233.477C814.601 232.377 815.803 231.827 817.443 231.398L818.439 231.819C818.75 234.226 817.055 236.035 815.621 237.879C809.081 246.291 801.834 254.261 794.907 262.367C784.954 274.015 775.171 285.75 765.024 297.236C759.422 303.576 747.543 315.55 743.382 321.642C742.465 322.985 742.345 324.356 742.491 325.95C742.575 326.875 742.851 327.503 743.267 328.318C744.532 329.004 744.752 329.222 746.223 328.818C748.517 328.189 750.757 326.282 752.502 324.694C757.842 319.836 762.598 314.117 767.757 309.018C782.895 294.058 798.112 279.078 813.003 263.877C817.013 259.783 825.93 248.743 830.517 246.324C832.019 245.531 832.606 245.657 834.09 246.323L834.422 247.363C827.488 259.716 816.434 271.009 807.19 281.774Q789.012 302.796 771.349 324.253C768.278 328.003 764.141 331.145 761.427 335.137C760.26 336.853 759.23 339.12 759.961 341.221C760.193 341.888 760.611 342.49 760.986 343.08C762.651 343.599 765.104 342.548 766.577 341.706C771.476 338.902 781.5 326.821 785.924 322.222C802.157 305.345 818.385 288.582 834.353 271.452C838.465 267.042 843.304 263.042 847.066 258.359L850.018 258.68C850.218 264.931 784.427 344.666 775.443 354.345C768.906 361.386 760.576 368.232 750.414 368.268C746.197 368.282 742.257 366.734 738.238 365.678C727.028 362.732 718.901 370.624 711.462 377.712C696.877 391.609 683.374 406.771 669.674 421.534C664.532 427.076 657.609 433.008 653.502 439.245C664.339 448.231 674.238 458.07 684.576 467.593C698.641 480.55 713.091 493.363 727.597 505.836C739.523 516.09 751.514 526.48 763.721 536.389C776.484 546.75 790.207 556.895 801.285 569.11C806.379 574.727 810.32 580.714 811.055 588.433Q811.124 589.133 811.158 589.836Q811.192 590.538 811.192 591.241Q811.191 591.945 811.155 592.647Q811.119 593.35 811.048 594.05Q810.977 594.75 810.871 595.445Q810.765 596.14 810.624 596.829Q810.484 597.519 810.309 598.2Q810.135 598.881 809.926 599.553Q809.718 600.225 809.476 600.885Q809.235 601.546 808.96 602.194Q808.686 602.841 808.38 603.475Q808.073 604.108 807.736 604.725Q807.398 605.342 807.03 605.941Q806.662 606.541 806.265 607.121Q805.868 607.702 805.442 608.261Q805.016 608.821 804.563 609.359C799.924 614.802 793.532 618.089 786.388 618.529C778.168 619.035 771.424 616.303 765.365 610.862C757.279 603.6 751.313 594.781 744.713 586.244C733.267 571.434 722.152 556.615 711.155 541.466C698.811 524.461 685.494 507.999 672.083 491.83C661.477 479.042 650.966 466.296 639.208 454.528C630.139 462.974 622.509 473.167 614.573 482.667C591.758 509.978 570.432 538.406 549.214 566.964C539.747 579.705 526.884 599.658 515.148 609.736C508.52 615.427 501.278 618.919 492.387 618.525C483.501 618.132 476.041 613.957 470.184 607.403C466.443 603.217 465.783 599.951 466.095 594.425C466.48 587.598 469.969 582.232 471.829 575.857C472.739 572.738 475.865 568.741 478.229 566.484C484.255 560.731 490.841 555.433 497.107 549.935L544.297 508.693C558.438 496.138 572.722 483.646 586.658 470.868C599.174 459.393 611.256 447.64 624.129 436.547C604.005 412.583 580.726 391.314 559.228 368.639Z"/>
	<path fill="#FEFEFE" transform="scale(0.985886 0.985886)" d="M519.769 579.438C520.474 574.902 523.008 574.552 525.625 571.485C530.181 566.145 534.539 560.682 539.205 555.421C542.993 551.148 548.778 546.831 551.412 541.858L551.673 541.925C551.385 543.397 550.817 544.197 549.983 545.427C542.599 556.315 534.411 566.137 526.403 576.523C524.075 579.542 523.023 582.734 519.94 585.182L519.709 585.994C517.311 587.558 516.461 591.972 514.563 593.148C513.859 593.585 513.291 593 512.296 593.902C510.144 595.856 508.764 599.296 506.225 600.806C504.365 601.911 501.186 602.831 499.049 602.446L499.224 601.103C498.133 601.74 497.048 602.623 495.734 602.463L495.925 601.854C504.003 597.628 515.767 580.297 519.769 579.438Z"/>
	<path fill="#FEFEFE" transform="scale(0.985886 0.985886)" d="M453.738 287.481C463.108 299.696 470.5 313.659 481.266 324.808C487.575 331.343 494.607 337.617 501.51 343.524C505.555 346.985 510.549 350.235 513.842 354.38C513.826 355.158 513.876 355.752 514.041 356.524C514.093 356.771 514.156 357.016 514.214 357.262C510.797 357.771 503.123 353.379 500.219 351.444C484.253 340.807 457.361 306.03 453.738 287.481Z"/>
	<path fill="#FEFEFE" transform="scale(0.985886 0.985886)" d="M470.076 223.261C470.249 223.226 470.42 223.181 470.594 223.155C485.296 220.994 515.69 237.867 527.879 246.626C534.803 251.601 542.001 257.567 547.682 263.939C556.361 273.674 566.548 291.303 568.66 304.057L567.464 303.168C566.241 298.235 561.927 291.514 559.299 287.145C556.192 281.979 551.071 277.01 546.851 272.702C527.548 253.005 497.122 229.756 470.076 223.261Z"/>
	<path fill="#FEFEFE" transform="scale(0.985886 0.985886)" d="M720.561 534.055L719.118 532.671C718.029 525.907 709.284 521.145 708.226 513.709C708.726 512.438 708.83 512.526 710.069 511.901C710.573 513.489 711.039 515.105 711.62 516.665C711.774 516.712 711.934 516.742 712.082 516.806C715.553 518.313 719.714 525.67 721.451 528.974C721.629 529.265 721.801 529.559 721.983 529.848C724.046 533.121 727.687 536.804 730.321 539.658C730.766 540.14 730.892 540.658 731.423 541.134C735.584 544.859 739.209 551.386 742.82 555.828C756.432 572.572 769.288 588.825 786.707 601.845L786.695 602.432C778.894 603.158 775.318 600.86 769.409 595.939C755.072 584.001 740.623 562.024 729.486 546.779C726.935 543.286 723.455 536.877 720.561 534.055Z"/>
</svg>
